<svg xmlns="http://www.w3.org/2000/svg" width="612" height="612"><path d="M114.75 535.5c0 42.247 34.253 76.5 76.5 76.5s76.5-34.253 76.5-76.5-34.253-76.5-76.5-76.5-76.5 34.253-76.5 76.5zm76.5-38.25c21.133 0 38.25 17.117 38.25 38.25s-17.117 38.25-38.25 38.25S153 556.614 153 535.5s17.117-38.25 38.25-38.25zm153 38.25c0 42.247 34.253 76.5 76.5 76.5s76.5-34.253 76.5-76.5-34.253-76.5-76.5-76.5-76.5 34.253-76.5 76.5zm76.5-38.25c21.133 0 38.25 17.117 38.25 38.25s-17.117 38.25-38.25 38.25-38.25-17.136-38.25-38.25 17.117-38.25 38.25-38.25zM153 420.75c-21.133 0-38.25-17.117-38.25-38.25l439.875-38.25S612 112.359 612 95.625c0-10.557-8.568-19.125-19.125-19.125H114.75V38.25h19.125c10.557 0 19.125-8.568 19.125-19.125S144.432 0 133.875 0H19.125C8.568 0 0 8.568 0 19.125S8.568 38.25 19.125 38.25H76.5V382.5c0 42.247 34.253 76.5 76.5 76.5h439.875c.593 0 0-18.972 0-38.25H153zm-38.25-306h459l-48.902 195.61-410.098 33.89v-229.5z"/></svg>