<svg viewBox="0 0 512 512" xmlns="http://www.w3.org/2000/svg"><path d="M97.7 114.7h43.9l22.6 65.7 12 39.8v.1l14.8 49.1c0 .1.1.2.1.3l9.1 30.1h-3.5c-18.1 0-32.8 14.7-32.8 32.8s14.7 32.8 32.8 32.8H213c-2.8 4.7-4.5 10.2-4.5 16 0 17.1 13.9 31 31 31s31-13.9 31-31c0-5.9-1.6-11.3-4.5-16h59.5c-2.8 4.7-4.5 10.2-4.5 16 0 17.1 13.9 31 31 31s31-13.9 31-31c0-5.9-1.6-11.3-4.5-16H392c4.1 0 7.5-3.4 7.5-7.5s-3.4-7.5-7.5-7.5H196.6c-9.8 0-17.8-8-17.8-17.8s8-17.8 17.8-17.8h178.6c3.3 0 6.2-2.2 7.2-5.3l12-39.8v-.2l26.9-89.2c.7-2.3.3-4.7-1.2-6.6s-3.6-3-6-3H176.5l-22.6-65.8c-1-3-3.9-5.1-7.1-5.1H97.7c-4.1 0-7.5 3.4-7.5 7.5s3.4 7.4 7.5 7.4zm157.8 266.6c0 8.8-7.2 16-16 16s-16-7.2-16-16 7.2-16 16-16 16 7.2 16 16zm112.6 0c0 8.8-7.2 16-16 16s-16-7.2-16-16 7.2-16 16-16 16 7.2 16 16zm13.7-121.6h-28.7l6.6-34.2h32.4l-10.3 34.2zm-44 0h-37.5v-34.2h44.2l-6.7 34.2zm-37.5 40v-25h34.6l-4.8 25h-29.8zm-44.8 0l-4.8-25h34.6v25h-29.8zm-47.2-25h27.1l4.8 25h-24.4l-7.5-25zm92-64.2v-25h51.9l-4.8 25h-47.1zm-15 0h-47.1l-4.8-25h51.9v25zm0 15v34.2h-37.5l-6.6-34.2h44.1zm-52.8 34.2h-28.7l-10.3-34.2h32.4l6.6 34.2zm137.3 40h-24.4l4.8-25h27.1l-7.5 25zm26.9-89.2h-34l4.8-25h36.7l-7.5 25zm-178.6-25l4.8 25h-34l-7.5-25h36.7z"/></svg>